<?xml version="1.0" encoding="UTF-8" standalone="no"?>
<svg
   xmlns:dc="http://purl.org/dc/elements/1.1/"
   xmlns:cc="http://creativecommons.org/ns#"
   xmlns:rdf="http://www.w3.org/1999/02/22-rdf-syntax-ns#"
   xmlns:svg="http://www.w3.org/2000/svg"
   xmlns="http://www.w3.org/2000/svg"
   xmlns:sodipodi="http://sodipodi.sourceforge.net/DTD/sodipodi-0.dtd"
   xmlns:inkscape="http://www.inkscape.org/namespaces/inkscape"
   fill="none"
   viewBox="0 0 348 348"
   version="1.1"
   id="svg3753"
   sodipodi:docname="DrDoctor.svg"
   inkscape:version="0.92.3 (2405546, 2018-03-11)">
  <metadata
     id="metadata3759">
    <rdf:RDF>
      <cc:Work
         rdf:about="">
        <dc:format>image/svg+xml</dc:format>
        <dc:type
           rdf:resource="http://purl.org/dc/dcmitype/StillImage" />
      </cc:Work>
    </rdf:RDF>
  </metadata>
  <defs
     id="defs3757" />
  <sodipodi:namedview
     pagecolor="#ffffff"
     bordercolor="#666666"
     borderopacity="1"
     objecttolerance="10"
     gridtolerance="10"
     guidetolerance="10"
     inkscape:pageopacity="0"
     inkscape:pageshadow="2"
     inkscape:window-width="916"
     inkscape:window-height="1048"
     id="namedview3755"
     showgrid="false"
     inkscape:zoom="1.8043414"
     inkscape:cx="147.88038"
     inkscape:cy="160.05558"
     inkscape:window-x="2853"
     inkscape:window-y="0"
     inkscape:window-maximized="0"
     inkscape:current-layer="svg3753" />
  <path
     stroke="#000"
     stroke-width="2"
     d="M5.079 5.776h336.913v337.67H5.08z"
     id="path3737" />
  <path
     stroke="#000"
     stroke-width="2"
     d="M282.734 40.554c0-8.376 6.966-15.165 15.56-15.165 4.126 0 8.084 1.597 11.001 4.441 2.918 2.844 4.558 6.702 4.558 10.724 0 8.376-6.966 15.165-15.56 15.165-8.593 0-15.559-6.79-15.559-15.165z"
     id="path3739" />
  <rect
     id="rect3761"
     width="177.77094"
     height="299.04614"
     x="16.751486"
     y="32.274387"
     style="fill:#ececec;stroke-width:1.20756674;stroke:#f9f9f9" />
  <rect
     style="fill:#ff0000;stroke-width:0.99728972"
     id="rect3763"
     width="2.7710936"
     height="299.31177"
     x="43.783287"
     y="32.095268" />
  <rect
     style="fill:#e6e6e6"
     id="rect3765"
     width="38.2411"
     height="58.192978"
     x="282.09738"
     y="270.40936" />
  <text
     xml:space="preserve"
     style="font-style:normal;font-weight:normal;font-size:23.00472832px;line-height:1.25;font-family:sans-serif;letter-spacing:0px;word-spacing:0px;fill:#000000;fill-opacity:1;stroke:none;stroke-width:0.57511818"
     x="275.86301"
     y="309.35416"
     id="text3769"
     transform="scale(1.0628904,0.94083077)"><tspan
       sodipodi:role="line"
       id="tspan3767"
       x="275.86301"
       y="309.35416"
       style="font-style:normal;font-variant:normal;font-weight:normal;font-stretch:normal;font-family:Bahnschrift;-inkscape-font-specification:Bahnschrift;stroke-width:0.57511818">O</tspan><tspan
       sodipodi:role="line"
       x="275.86301"
       y="338.11008"
       id="tspan3771"
       style="stroke-width:0.57511818" /></text>
  <text
     xml:space="preserve"
     style="font-style:normal;font-weight:normal;font-size:23.00472832px;line-height:1.25;font-family:sans-serif;letter-spacing:0px;word-spacing:0px;fill:#000000;fill-opacity:1;stroke:none;stroke-width:0.57511818"
     x="279.88092"
     y="345.06393"
     id="text3769-0"
     transform="scale(1.0628904,0.94083077)"><tspan
       sodipodi:role="line"
       id="tspan3767-5"
       x="279.88092"
       y="345.06393"
       style="font-style:normal;font-variant:normal;font-weight:normal;font-stretch:normal;font-family:Bahnschrift;-inkscape-font-specification:Bahnschrift;stroke-width:0.57511818">I</tspan><tspan
       sodipodi:role="line"
       x="279.88092"
       y="373.81985"
       id="tspan3771-7"
       style="stroke-width:0.57511818" /></text>
  <path
     style="fill:none;stroke:#000000;stroke-width:1px;stroke-linecap:butt;stroke-linejoin:miter;stroke-opacity:1"
     d="m 142.98846,33.757924 v 64.843603 c 1.06309,2.165153 1.10844,2.681143 1.10844,4.433753 0,0.18474 0.13063,0.42359 0,0.55422 -0.13064,0.13063 -0.42359,-0.13063 -0.55422,0 -0.27711,0.27711 0.27711,1.38554 0,1.66265 -0.13063,0.13063 -0.42359,-0.13063 -0.55422,0 -1.47127,1.47127 1.47126,-0.36282 0,1.10844 -0.13063,0.13063 -0.42359,-0.13063 -0.55422,0 -0.13063,0.13063 0.13063,0.42359 0,0.55422 -0.13063,0.13063 -0.42359,-0.13063 -0.55422,0 -0.26126,0.26126 0.26126,0.84718 0,1.10844 -0.13063,0.13063 -0.42359,-0.13063 -0.55422,0 -0.13063,0.13063 0.13063,0.42359 0,0.55422 -0.13063,0.13063 -0.42359,-0.13063 -0.55422,0 -0.26126,0.26126 0.26126,0.84717 0,1.10843 -0.13063,0.13063 -0.42359,-0.13063 -0.55422,0 -1.48262,1.48263 1.48263,-0.37418 0,1.10844 -0.13063,0.13063 -0.42358,-0.13063 -0.55422,0 -0.17161,0.17161 0.17162,2.59948 0,2.7711 -0.13063,0.13063 -0.42358,-0.13064 -0.55421,0 -0.13337,0.13336 0.13336,2.08351 0,2.21687 -0.13063,0.13063 -0.42359,-0.13063 -0.55422,0 -0.17162,0.17161 0.17161,2.59948 0,2.7711 -0.13063,0.13063 -0.42359,-0.13064 -0.55422,0 -0.13336,0.13336 0.13336,2.08351 0,2.21687 -0.13063,0.13063 -0.42359,-0.13063 -0.55422,0 -0.0178,0.0178 0,1.52824 0,1.66266 0,2.77109 0,5.54219 0,8.31328 0,1.8474 0,3.69479 0,5.54219 0,0.18474 0,0.36948 0,0.55422 0,0.18474 -0.13063,0.42358 0,0.55422 0.13063,0.13063 0.42359,-0.13064 0.55422,0 0.13063,0.13063 0,0.36947 0,0.55421 0,0.18474 0,0.36948 0,0.55422 0,1.10844 0,2.21688 0,3.32532 0,0.18474 -0.13063,0.42358 0,0.55421 0.13063,0.13064 0.42359,-0.13063 0.55422,0 0.0178,0.0178 0,1.52825 0,1.66266"
     id="path3806"
     inkscape:connector-curvature="0" />
  <path
     style="fill:none;stroke:#000000;stroke-width:1px;stroke-linecap:butt;stroke-linejoin:miter;stroke-opacity:1"
     d="m 138.55471,144.04747 2.77109,32.69891 3.32531,154.62706"
     id="path3808"
     inkscape:connector-curvature="0" />
</svg>
