<?xml version="1.0" encoding="UTF-8" standalone="no"?>
<svg
   xmlns:dc="http://purl.org/dc/elements/1.1/"
   xmlns:cc="http://creativecommons.org/ns#"
   xmlns:rdf="http://www.w3.org/1999/02/22-rdf-syntax-ns#"
   xmlns:svg="http://www.w3.org/2000/svg"
   xmlns="http://www.w3.org/2000/svg"
   xmlns:sodipodi="http://sodipodi.sourceforge.net/DTD/sodipodi-0.dtd"
   xmlns:inkscape="http://www.inkscape.org/namespaces/inkscape"
   viewBox="0.0 0.0 348.0 348.0"
   fill="none"
   version="1.1"
   id="svg6"
   sodipodi:docname="DrDoctor.svg"
   inkscape:version="0.92.2 (5c3e80d, 2017-08-06)">
  <metadata
     id="metadata12">
    <rdf:RDF>
      <cc:Work
         rdf:about="">
        <dc:format>image/svg+xml</dc:format>
        <dc:type
           rdf:resource="http://purl.org/dc/dcmitype/StillImage" />
      </cc:Work>
    </rdf:RDF>
  </metadata>
  <defs
     id="defs10" />
  <sodipodi:namedview
     pagecolor="#ffffff"
     bordercolor="#666666"
     borderopacity="1"
     objecttolerance="10"
     gridtolerance="10"
     guidetolerance="10"
     inkscape:pageopacity="0"
     inkscape:pageshadow="2"
     inkscape:window-width="1366"
     inkscape:window-height="745"
     id="namedview8"
     showgrid="false"
     inkscape:zoom="0.67816092"
     inkscape:cx="225.61017"
     inkscape:cy="159.60048"
     inkscape:window-x="-8"
     inkscape:window-y="-8"
     inkscape:window-maximized="1"
     inkscape:current-layer="svg6" />
  <path
     d="M5.079 5.776h336.913v337.67H5.08z"
     stroke-width="2"
     stroke="#000"
     id="path2" />
  <path
     d="M282.734 40.554c0-8.376 6.966-15.165 15.56-15.165 4.126 0 8.084 1.597 11.001 4.441 2.918 2.844 4.558 6.702 4.558 10.724 0 8.376-6.966 15.165-15.56 15.165-8.593 0-15.559-6.79-15.559-15.165z"
     stroke-width="2"
     stroke="#000"
     id="path4" />
  <g
     transform="matrix(0.39151777,0,0,0.39151777,13.361074,16.220514)"
     id="layer1">
    <path
       style="fill:#000000"
       inkscape:connector-curvature="0"
       d="m 143.68,350.424 c -0.97,-1.124 -1.459,-4.528 -1.583,-11.02 l -0.178,-9.393 -4.034,-1.739 c -8.964,-3.866 -12.689,-9.813 -12.894,-20.582 -0.108,-5.657 0.291,-7.443 2.373,-10.636 2.677,-4.105 2.679,-4.094 -2.084,-9.124 -6.595,-6.965 -8.469,-24.169 -3.26,-29.93 1.091,-1.206 1.975,-2.648 1.965,-3.204 -0.011,-0.556 -2.142,-3.637 -4.736,-6.847 -8.054,-9.967 -9.06,-12.48 -9.304,-23.252 -0.197,-8.675 0.025,-9.935 2.569,-14.551 1.531,-2.78 4.071,-6.473 5.643,-8.207 l 2.858,-3.152 -3.746,-4.315 c -2.061,-2.373 -4.952,-6.775 -6.425,-9.782 -2.37,-4.841 -2.709,-6.784 -2.957,-16.964 -0.243,-9.97 0.015,-12.184 1.944,-16.672 1.224,-2.847 3.518,-6.463 5.098,-8.036 2.785,-2.772 3.751,-5.503 1.934,-5.468 -0.489,0.009 -3.414,-2.375 -6.501,-5.299 -8.562,-8.112 -13.178,-22.332 -9.905,-30.512 l 1.458,-3.645 -3.764,-2.939 C 94.458,92.272 92.394,89.171 89.319,81.88 L 87.777,78.226 82.74,79.943 C 77.913,81.588 77.479,81.576 72.403,79.654 69.083,78.396 65,77.71 61.468,77.816 57.505,77.935 54.385,77.319 50.961,75.742 48.283,74.507 44.09,73.418 41.645,73.32 38.666,73.202 35.331,72.044 31.542,69.815 27.504,67.439 24.669,66.496 21.635,66.52 16.833,66.559 8.954,62.91 4.778,58.714 L 2.125,56.049 7.661,54.699 C 14.406,53.054 32.256,43.693 44.299,35.484 49.186,32.153 59.405,25.162 67.007,19.948 83.968,8.316 85.249,7.627 93.041,5.94 c 18.041,-3.907 32.475,4.14 35.088,19.563 1.008,5.944 -0.566,11.199 -4.839,16.16 -1.808,2.099 -3.28,4.225 -3.27,4.724 0.009,0.5 1.477,2.09 3.262,3.535 2.623,2.124 3.912,2.506 6.72,1.995 5.265,-0.957 6.058,-2.385 5.986,-10.777 -0.048,-5.656 -0.586,-8.483 -2.215,-11.633 -4.459,-8.626 -2.175,-17.946 5.416,-22.101 10.278,-5.626 21.579,-0.425 23.033,10.601 0.407,3.085 -0.101,5.641 -1.982,9.968 -2.223,5.114 -2.475,6.878 -2.076,14.542 l 0.455,8.723 4.703,0.213 c 4.324,0.196 10.766,-2.017 10.734,-3.689 -0.007,-0.346 -1.095,-2.001 -2.419,-3.679 -5.905,-7.481 -6.634,-19.79 -1.631,-27.554 6.208,-9.635 14.774,-12.904 27.54,-10.511 11.72,2.197 16.667,5.026 45.394,25.961 6.877,5.011 18.416,12.357 25.643,16.323 12.505,6.862 13.393,7.187 18.381,6.721 4.82,-0.451 5.245,-0.317 5.283,1.662 0.056,2.934 -6.167,10.265 -10.827,12.755 -2.098,1.121 -5.578,2.072 -7.733,2.113 -2.155,0.041 -6.455,1.295 -9.555,2.786 -4.588,2.207 -6.475,2.602 -10.149,2.122 -3.202,-0.418 -5.145,-0.158 -6.69,0.897 -2.473,1.689 -8.558,3.01 -16.596,3.602 -16.544,1.219 -22.092,1.791 -22.985,2.366 -0.546,0.352 -1.594,2.16 -2.329,4.019 -1.483,3.749 -5.463,8.369 -9.608,11.153 -2.495,1.675 -2.706,2.342 -2.595,8.179 0.17,8.934 -2.96,15.866 -11.137,24.665 l -6.516,7.011 4.217,4.847 c 6.277,7.214 8.314,12.196 8.503,20.802 0.296,13.435 -2.865,21.068 -12.139,29.305 l -4.665,4.144 3.133,3.226 c 7.411,7.63 8.071,9.248 8.214,20.132 0.161,12.299 -1.395,16.007 -9.965,23.752 -5.489,4.961 -7.362,8.083 -4.819,8.035 0.58,-0.011 2.253,2.545 3.717,5.68 4.617,9.886 2.796,20.291 -5.201,29.733 -2.097,2.476 -3.808,4.75 -3.802,5.054 0.005,0.303 1.166,2.188 2.58,4.188 2.08,2.942 2.593,4.857 2.691,10.044 0.215,11.274 -6.64,20.441 -15.411,20.608 l -2.898,0.055 -0.468,11.221 c -0.429,10.3 -1.094,12.739 -3.504,12.844 -0.344,0.015 -1.258,-0.705 -2.03,-1.601 z m 2.634,-25.96 c -0.278,-14.6 -0.784,-22.43 -1.448,-22.417 -0.669,0.013 -0.824,7.942 -0.449,23.001 0.326,13.06 0.951,22.738 1.448,22.418 0.482,-0.311 0.684,-10.661 0.449,-23.002 z m -4.679,-11.781 c -0.288,-8.834 -1.64,-10.586 -4.185,-5.426 -1.823,3.696 -1.129,10.404 1.592,15.391 l 1.628,2.983 0.612,-2.512 c 0.337,-1.382 0.496,-6.078 0.353,-10.436 z m 11.597,9.274 c 1.371,-2.683 1.07,-12.417 -0.428,-13.86 -2.279,-2.193 -2.675,-1.165 -2.837,7.358 -0.118,6.185 0.169,8.5 1.053,8.481 0.668,-0.014 1.663,-0.904 2.212,-1.979 z m 8.051,-4.893 c 6.225,-10.514 3.622,-18.444 -9.241,-28.156 -1.066,-0.805 -3.799,-2.867 -6.073,-4.583 -2.274,-1.715 -5.426,-4.909 -7.004,-7.097 -2.533,-3.511 -2.834,-4.671 -2.557,-9.874 l 0.314,-5.897 -4.208,-2.552 c -2.315,-1.403 -4.937,-2.537 -5.828,-2.521 -4.26,0.082 -6.174,12.997 -2.995,20.216 3.049,6.924 12.382,14.728 22.063,18.449 5.06,1.945 10.932,8.066 11.813,12.313 0.729,3.516 0.375,8.583 -0.942,13.465 -0.607,2.253 -0.508,2.369 0.958,1.119 0.899,-0.766 2.564,-2.963 3.7,-4.882 z m -28.801,-0.687 c -0.923,-6.699 -0.014,-11.098 2.989,-14.463 2.948,-3.303 2.502,-5.4 -1.338,-6.286 -2.236,-0.516 -3.15,-0.098 -5.067,2.317 -2.072,2.611 -2.275,3.705 -1.785,9.592 0.379,4.549 1.276,7.767 2.843,10.198 1.26,1.954 2.457,3.549 2.661,3.545 0.205,-0.004 0.068,-2.21 -0.303,-4.903 z M 161.7,283.973 c 5.104,-4.781 7.606,-10.429 7.483,-16.895 -0.183,-9.584 -6.246,-17.626 -18.96,-25.144 -7.338,-4.339 -14.436,-10.358 -16.321,-13.84 -2.324,-4.292 -2.013,-10.976 0.705,-15.149 2.71,-4.163 2.787,-4.047 -6.361,-9.532 -6.16,-3.692 -6.583,-3.525 -10.593,4.189 -3.845,7.396 -4.189,14.989 -1.089,24.037 2.031,5.927 3.45,8.094 8.67,13.245 3.786,3.735 8.745,7.363 12.604,9.22 12.441,5.985 18.549,13.791 15.094,19.29 -0.872,1.387 -1.502,4.555 -1.45,7.288 0.156,8.216 3.731,9.368 10.218,3.291 z m -14.164,-6.231 c 0.058,-8.248 -0.973,-11.734 -3.456,-11.687 -1.351,0.026 -0.804,13.436 0.604,14.792 2.119,2.04 2.821,1.275 2.852,-3.105 z m -6.562,-9.377 c -0.43,-1.659 -0.487,-1.658 -1.18,0.022 -0.401,0.971 -0.371,2.545 0.066,3.5 0.757,1.652 0.814,1.651 1.18,-0.023 0.212,-0.966 0.182,-2.541 -0.066,-3.499 z m 25.641,-24.493 c 6.941,-4.404 11.092,-12.4 11.542,-22.233 0.303,-6.607 0.041,-7.833 -2.875,-13.483 -1.764,-3.418 -4.257,-7.127 -5.54,-8.241 -3.355,-2.915 -17.915,-12.418 -22.071,-14.405 -1.943,-0.929 -6.385,-3.498 -9.871,-5.71 -5.446,-3.455 -6.632,-4.759 -8.428,-9.27 -3.414,-8.575 -2.85,-14.547 1.883,-19.951 2.705,-3.087 1.725,-4.645 -4.932,-7.844 l -5.734,-2.756 -3.432,4.066 c -5.33,6.316 -7.062,11.553 -6.885,20.825 0.131,6.878 0.604,8.925 3.32,14.347 3.703,7.395 10.596,14.284 18.968,18.959 12.678,7.078 22.946,14.136 24.794,17.041 1.064,1.672 1.969,4.746 2.01,6.83 0.08,3.986 -2.564,10.492 -5.181,12.75 -2.607,2.249 -1.682,4.821 2.827,7.856 5.142,3.461 5.917,3.559 9.605,1.219 z m -18.107,-14.908 c 0.049,-13.522 -0.014,-13.816 -3.305,-15.439 l -3.029,-1.494 0.2,10.484 c 0.181,9.507 0.408,10.672 2.432,12.488 1.229,1.101 2.558,1.656 2.956,1.232 0.397,-0.423 0.733,-3.695 0.746,-7.271 z m 6.308,-3.3 c 0.094,-5.467 -1.94,-4.793 -2.177,0.721 -0.165,3.865 0.052,4.731 0.953,3.803 0.642,-0.661 1.192,-2.697 1.224,-4.524 z m -15.273,-5.713 c -1.478,-1.422 -2.534,2.7 -1.547,6.035 0.774,2.615 0.805,2.593 1.687,-1.186 0.598,-2.564 0.551,-4.183 -0.14,-4.849 z m 31.129,-32.892 c 8.23,-6.286 12.042,-14.491 11.965,-25.756 -0.031,-4.567 -0.647,-7.661 -2.073,-10.403 -1.952,-3.754 -10.651,-13.359 -12.075,-13.332 -0.38,0.007 -3.612,-1.699 -7.182,-3.792 -3.64,-2.134 -11.727,-5.359 -18.41,-7.342 -13.464,-3.995 -22.423,-8.69 -26.973,-14.136 -2.474,-2.962 -3.207,-4.909 -3.644,-9.683 -0.576,-6.297 0.174,-7.298 3.12,-4.165 4.102,4.363 14.122,2.903 18.338,-2.671 2.218,-2.933 1.97,-5.029 -0.719,-6.083 -7.356,-2.883 -16.038,-1.747 -22.604,2.957 -8.315,5.957 -10.532,15.757 -5.634,24.906 4.618,8.627 11.048,13.233 32.851,23.534 18.354,8.672 21.66,10.719 24.55,15.202 3.97,6.159 1.733,15.864 -5.16,22.381 -3.839,3.629 -4.176,5.193 -1.589,7.369 2.382,2.004 7.511,4.548 9.204,4.566 0.752,0.007 3.467,-1.591 6.035,-3.552 z M 119.629,92.881 c -1.262,-1.215 0.323,-2.398 3.288,-2.455 1.617,-0.031 2.949,0.394 2.959,0.944 0.011,0.55 -0.619,1.012 -1.398,1.027 -0.78,0.015 -2.037,0.278 -2.792,0.584 -0.756,0.307 -1.681,0.262 -2.057,-0.1 z m 30.196,75.877 c 0.473,-13.054 0.454,-13.199 -1.907,-14.95 -3.092,-2.293 -5.925,-3.152 -6.817,-2.066 -0.39,0.475 -0.336,6.836 0.12,14.137 0.802,12.861 0.907,13.314 3.354,14.59 4.627,2.414 4.747,2.146 5.25,-11.711 z m 8.081,4.715 c 2.541,-4.042 2.657,-7.942 0.343,-11.505 -1.165,-1.793 -2.555,-2.978 -3.09,-2.633 -1.271,0.82 -0.98,16.512 0.306,16.488 0.537,-0.011 1.636,-1.068 2.441,-2.35 z m -19.614,-7.826 c -0.146,-7.675 -0.462,-9.493 -1.646,-9.47 -1.707,0.032 -2.979,2.266 -3.857,6.775 -0.439,2.252 0.002,4.563 1.473,7.724 3.23,6.942 4.233,5.689 4.03,-5.029 z m 33.688,-33.279 c 9.409,-5.106 17.316,-16.898 17.913,-26.713 0.34,-5.586 0.137,-6.285 -2.885,-9.947 -5.014,-6.077 -10.308,-8.656 -17.585,-8.565 -6.631,0.082 -11.861,2.123 -12.325,4.81 -0.159,0.918 1.048,3.108 2.682,4.868 2.589,2.789 3.735,3.241 8.924,3.517 5.292,0.282 6.292,0.021 9,-2.347 1.675,-1.465 3.324,-2.669 3.664,-2.676 0.846,-0.016 -0.293,8.04 -1.488,10.53 -3.46,7.206 -12.491,14.997 -20.688,17.846 -5.073,1.764 -4.429,3.637 2.441,7.1 6.174,3.113 7.223,3.273 10.347,1.577 z m -3.336,-40.501 c -2.834,-0.683 -2.053,-2.272 1.146,-2.333 3.327,-0.063 4.882,1.389 2.517,2.348 -0.86,0.349 -1.641,0.584 -1.735,0.522 -0.093,-0.062 -0.961,-0.304 -1.928,-0.537 z m -18.007,31.788 c 0.346,-3.652 0.586,-10.624 1.178,-34.279 0.359,-14.309 0.816,-26.556 1.016,-27.216 0.201,-0.659 0.343,-6.513 0.317,-13.008 l -0.047,-11.81 -6.863,-0.558 c -3.774,-0.308 -6.999,-0.418 -7.166,-0.245 -0.166,0.174 -0.152,19.247 0.031,42.386 0.263,33.016 0.607,42.241 1.602,42.858 1.659,1.029 6.968,2.907 8.562,3.029 0.688,0.052 1.305,-0.468 1.37,-1.157 z m 11.091,-3.888 c 4.522,-2.182 11.538,-8.39 11.504,-10.179 -0.012,-0.613 -0.697,-1.102 -1.521,-1.087 -0.825,0.016 -1.397,-0.488 -1.272,-1.12 0.126,-0.632 -1.338,-1.542 -3.253,-2.022 -1.914,-0.481 -5.098,-2.244 -7.075,-3.917 l -3.595,-3.044 -0.181,6.316 c -0.099,3.473 0.047,6.535 0.325,6.803 0.279,0.267 2.542,-0.251 5.03,-1.152 6.157,-2.229 5.747,-0.684 -0.642,2.417 -5.053,2.454 -6.475,4.515 -5.231,7.582 0.741,1.825 0.931,1.806 5.911,-0.597 z m -24.587,-1.789 c -0.734,-1.797 -12.921,-8.573 -15.336,-8.527 -1.735,0.033 -1.617,0.381 1.027,3.038 6.233,6.263 16.185,10.08 14.309,5.489 z m -0.68,-6.556 c 0.69,-3.027 0.745,-12.266 0.073,-12.253 -0.352,0.006 -2.052,1.123 -3.777,2.481 -1.726,1.358 -4.665,3.121 -6.533,3.917 l -3.395,1.447 5.979,2.947 c 7.378,3.636 7.166,3.595 7.653,1.461 z m 60.028,-21.875 c 2.314,-2.508 4.932,-5.715 5.819,-7.126 1.588,-2.527 1.538,-2.641 -3.342,-7.708 -2.724,-2.829 -5.303,-5.287 -5.73,-5.462 -0.427,-0.175 -2.778,1.511 -5.224,3.748 -6.618,6.053 -10.717,7.795 -18.825,8.001 -3.849,0.098 -8.127,-0.026 -9.507,-0.275 -2.294,-0.413 -2.503,-0.152 -2.442,3.047 0.073,3.856 -0.056,3.827 7.935,1.78 6.318,-1.618 14.978,0.625 20.48,5.305 2.083,1.772 4.426,3.228 5.208,3.236 0.782,0.008 3.315,-2.038 5.628,-4.546 z m -88.708,1.777 c 0.62,-0.777 3.444,-2.462 6.276,-3.744 4.224,-1.913 6.275,-2.248 11.429,-1.865 3.455,0.256 7.133,0.901 8.175,1.433 2.365,1.209 3.145,0.436 3.079,-3.05 l -0.052,-2.729 -8.248,0.183 c -6.318,0.141 -9.335,-0.29 -12.895,-1.842 -4.318,-1.882 -11.08,-8.008 -13.735,-12.444 -1.057,-1.765 -1.473,-1.532 -5.691,3.173 -2.503,2.792 -4.539,5.658 -4.526,6.368 0.053,2.775 4.306,9.09 8.384,12.448 4.667,3.843 6.087,4.22 7.804,2.069 z M 219.057,77.988 c 2.38,-0.966 1.888,-2.053 -1.963,-4.333 -1.926,-1.14 -5.637,-5.157 -8.248,-8.926 -4.238,-6.119 -5.091,-6.846 -7.969,-6.792 -7.014,0.134 -7.277,4.369 -0.693,11.146 5.007,5.152 8.827,7.526 13.949,8.671 1.658,0.37 3.09,0.718 3.184,0.772 0.093,0.055 0.876,-0.187 1.74,-0.538 z M 133.21,75.676 c 2.705,-0.595 3.281,-3.055 3.104,-13.244 l -0.143,-8.234 -5.977,0.74 -5.977,0.74 -4.595,-4.423 c -5.709,-5.496 -6.028,-8.378 -1.374,-12.427 4.478,-3.896 6.47,-8.366 6.357,-14.268 -0.081,-4.279 -0.592,-5.453 -3.922,-9.01 -5.071,-5.417 -11.624,-7.686 -20.993,-7.269 -6.125,0.272 -8.236,0.909 -15.414,4.652 -4.575,2.385 -10.818,6.08 -13.874,8.211 -3.056,2.131 -9.275,6.467 -13.82,9.635 C 38.576,43.33 29.218,48.791 11.713,56.96 l -3.953,1.846 2.861,1.43 c 5.235,2.617 12.981,2.6 19.882,-0.044 11.656,-4.466 42.672,-24.799 45.521,-29.842 2.333,-4.13 3.624,-3.099 3.74,2.986 0.222,11.649 11.037,21.668 23.163,21.458 1.787,-0.031 3.258,0.394 3.268,0.944 0.011,0.55 -0.49,1.009 -1.112,1.021 -1.813,0.035 -0.212,7.513 2.346,10.966 2.957,3.99 9.255,7.747 14.497,8.65 3.866,0.665 5.556,0.561 11.284,-0.699 z M 242.57,74.17 c -0.01,-0.537 -1.27,-1.705 -2.799,-2.595 -7.221,-4.203 -12.242,-7.789 -16.063,-11.473 -8.359,-8.06 -8.011,-7.885 -11.454,-5.761 -1.667,1.027 -3.017,2.603 -3,3.5 0.049,2.57 11.639,12.558 17.512,15.093 5.433,2.345 15.841,3.159 15.804,1.236 z M 84.606,74.104 c 1.941,-1.029 5.626,-3.821 8.188,-6.203 7.589,-7.057 7.844,-9.33 1.172,-10.451 -3.66,-0.615 -3.957,-0.43 -10.377,6.44 -3.635,3.89 -7.832,7.898 -9.325,8.906 -3.137,2.119 -3.413,3.278 -0.926,3.891 2.558,0.63 7.224,-0.439 11.268,-2.583 z m 90.454,0.223 c 5.828,-1.586 11.796,-7.055 13.816,-12.66 1.315,-3.65 1.38,-4.794 0.342,-5.997 -0.705,-0.818 -1.115,-1.506 -0.911,-1.528 0.205,-0.023 3.814,-0.204 8.021,-0.403 6.809,-0.322 8.118,-0.715 11.934,-3.585 6.634,-4.991 10.066,-13.473 8.302,-20.52 -0.852,-3.401 2.49,-1.221 4.072,2.657 1.738,4.26 9.744,11.097 26.348,22.498 13.471,9.25 29.74,12.871 36.63,8.153 3.717,-2.545 3.373,-4.116 -1.18,-5.386 C 272.647,54.825 253.767,43.798 232.895,28.621 206.028,9.085 196.733,5.507 181.586,8.873 c -3.187,0.708 -9.213,6.513 -10.723,10.331 -2.768,6.994 -0.731,15.087 5.304,21.073 l 3.808,3.777 -2.181,3.339 c -4.453,6.817 -10.209,9.048 -17.866,6.925 l -2.765,-0.767 0.191,10.078 0.192,10.078 3.267,0.877 c 4.544,1.218 9.13,1.136 14.247,-0.257 z m 83.876,-3.099 c 1.683,-0.682 2.144,-3.434 0.57,-3.404 -1.935,0.037 -22.09,-13.603 -29.321,-19.843 -7.746,-6.684 -9.619,-7.536 -10.602,-4.82 -1.465,4.047 -0.378,6.658 4.867,11.695 12.233,11.748 27.739,19.11 34.486,16.372 z M 67.493,71.005 c 2.459,-1.313 7.911,-5.06 12.116,-8.327 l 7.645,-5.94 -3.281,-3.258 C 82.169,51.688 80.336,50.229 79.9,50.237 79.464,50.245 76.78,52.434 73.935,55.101 67.339,61.287 60.058,66.78 54.7,69.615 c -5.04,2.666 -5.304,3.937 -0.917,4.408 4.804,0.516 8.697,-0.341 13.71,-3.018 z m -16.614,-5.08 c 5.327,-2.67 27.179,-17.117 27.163,-17.958 -0.028,-1.492 -3.54,-9.629 -4.151,-9.618 -0.428,0.008 -6.489,4.467 -13.47,9.908 -11.032,8.601 -24.663,16.822 -27.995,16.886 -2.372,0.045 -0.814,2.02 2.239,2.839 5.782,1.551 10.111,1.002 16.214,-2.057 z M 155.807,28.821 c 6.977,-8.689 1.403,-20.062 -9.729,-19.85 -4.313,0.082 -5.402,0.549 -8.299,3.558 -2.857,2.969 -3.322,4.145 -3.244,8.218 0.081,4.277 0.516,5.144 4.324,8.632 4.02,3.68 4.491,3.847 9.278,3.295 4.152,-0.479 5.506,-1.159 7.67,-3.853 z m -9.535,-0.697 c -0.354,-0.549 0.283,-1.311 1.416,-1.694 3.05,-1.032 5.586,-7.142 3.984,-9.601 -2.565,-3.939 -0.154,-5.649 3.095,-2.194 2.406,2.559 2.221,7.547 -0.394,10.588 -2.412,2.805 -7.084,4.478 -8.101,2.901 z"
       id="path16479" />
  </g>
  <rect
     style="opacity:1;fill:none;fill-opacity:1;stroke:#000000;stroke-width:3.77952766;stroke-linecap:butt;stroke-miterlimit:4;stroke-dasharray:none;stroke-opacity:1"
     id="rect830"
     width="61.932205"
     height="25.067797"
     x="120.91525"
     y="57.508476" />
  <rect
     style="opacity:1;fill:none;fill-opacity:1;stroke:#000000;stroke-width:3.77952766;stroke-linecap:butt;stroke-miterlimit:4;stroke-dasharray:none;stroke-opacity:1"
     id="rect830-0"
     width="61.932205"
     height="25.067797"
     x="200.54237"
     y="57.508476" />
  <rect
     style="opacity:1;fill:none;fill-opacity:1;stroke:#000000;stroke-width:3.77952766;stroke-linecap:butt;stroke-miterlimit:4;stroke-dasharray:none;stroke-opacity:1"
     id="rect830-8"
     width="61.932205"
     height="25.067797"
     x="120.91525"
     y="142.29662" />
  <rect
     style="opacity:1;fill:none;fill-opacity:1;stroke:#000000;stroke-width:3.77952766;stroke-linecap:butt;stroke-miterlimit:4;stroke-dasharray:none;stroke-opacity:1"
     id="rect830-3"
     width="61.932205"
     height="25.067797"
     x="200.54277"
     y="142.29662" />
  <rect
     style="opacity:1;fill:none;fill-opacity:1;stroke:#000000;stroke-width:3.77952766;stroke-linecap:butt;stroke-miterlimit:4;stroke-dasharray:none;stroke-opacity:1"
     id="rect859"
     width="61.932205"
     height="39.81356"
     x="120.91525"
     y="92.576271" />
  <rect
     style="opacity:1;fill:none;fill-opacity:1;stroke:#000000;stroke-width:3.77952766;stroke-linecap:butt;stroke-miterlimit:4;stroke-dasharray:none;stroke-opacity:1"
     id="rect859-7"
     width="61.932205"
     height="39.81356"
     x="200.54277"
     y="92.576675" />
  <text
     xml:space="preserve"
     style="font-style:normal;font-variant:normal;font-weight:normal;font-stretch:normal;font-size:40px;line-height:1.25;font-family:'special elite';-inkscape-font-specification:'special elite';letter-spacing:0px;word-spacing:0px;fill:#000000;fill-opacity:1;stroke:none"
     x="126.28813"
     y="126.57812"
     id="text878"><tspan
       sodipodi:role="line"
       id="tspan876"
       x="126.28813"
       y="126.57812">88</tspan></text>
  <text
     xml:space="preserve"
     style="font-style:normal;font-variant:normal;font-weight:normal;font-stretch:normal;font-size:40px;line-height:1.25;font-family:'special elite';-inkscape-font-specification:'special elite';letter-spacing:0px;word-spacing:0px;fill:#000000;fill-opacity:1;stroke:none"
     x="206.94984"
     y="126.57812"
     id="text878-9"><tspan
       sodipodi:role="line"
       id="tspan876-4"
       x="206.94984"
       y="126.57812">88</tspan></text>
  <rect
     style="opacity:1;fill:none;fill-opacity:1;stroke:#000000;stroke-width:3.59975672;stroke-linecap:butt;stroke-miterlimit:4;stroke-dasharray:none;stroke-opacity:1"
     id="rect898"
     width="190.4001"
     height="29.400244"
     x="85.435539"
     y="182.4015" />
  <rect
     style="opacity:1;fill:none;fill-opacity:1;stroke:#000000;stroke-width:3.59975672;stroke-linecap:butt;stroke-miterlimit:4;stroke-dasharray:none;stroke-opacity:1"
     id="rect898-8"
     width="190.4001"
     height="29.400244"
     x="85.435524"
     y="222.84218" />
  <rect
     style="opacity:1;fill:none;fill-opacity:1;stroke:#000000;stroke-width:3.59975672;stroke-linecap:butt;stroke-miterlimit:4;stroke-dasharray:none;stroke-opacity:1"
     id="rect898-7"
     width="190.4001"
     height="29.400244"
     x="85.435493"
     y="261.28284" />
  <rect
     style="opacity:1;fill:none;fill-opacity:1;stroke:#000000;stroke-width:3.59975672;stroke-linecap:butt;stroke-miterlimit:4;stroke-dasharray:none;stroke-opacity:1"
     id="rect898-5"
     width="190.4001"
     height="29.400244"
     x="85.435883"
     y="301.09644" />
  <rect
     style="opacity:1;fill:none;fill-opacity:1;stroke:#000000;stroke-width:3.68799949;stroke-linecap:butt;stroke-miterlimit:4;stroke-dasharray:none;stroke-opacity:1"
     id="rect938"
     width="30.96776"
     height="29.312"
     x="285.78986"
     y="182.446" />
  <rect
     style="opacity:1;fill:none;fill-opacity:1;stroke:#000000;stroke-width:3.68799949;stroke-linecap:butt;stroke-miterlimit:4;stroke-dasharray:none;stroke-opacity:1"
     id="rect938-7"
     width="30.96776"
     height="29.312"
     x="285.79001"
     y="222.886" />
  <rect
     style="opacity:1;fill:none;fill-opacity:1;stroke:#000000;stroke-width:3.68799949;stroke-linecap:butt;stroke-miterlimit:4;stroke-dasharray:none;stroke-opacity:1"
     id="rect938-3"
     width="30.96776"
     height="29.312"
     x="285.79001"
     y="261.327" />
  <rect
     style="opacity:1;fill:none;fill-opacity:1;stroke:#000000;stroke-width:3.68799949;stroke-linecap:butt;stroke-miterlimit:4;stroke-dasharray:none;stroke-opacity:1"
     id="rect938-0"
     width="30.96776"
     height="29.312"
     x="285.79001"
     y="301.14099" />
  <rect
     style="opacity:1;fill:none;fill-opacity:1;stroke:#000000;stroke-width:3.68799949;stroke-linecap:butt;stroke-miterlimit:4;stroke-dasharray:none;stroke-opacity:1"
     id="rect938-8"
     width="30.96776"
     height="29.312"
     x="44.447998"
     y="301.14099" />
  <rect
     style="opacity:1;fill:none;fill-opacity:1;stroke:#000000;stroke-width:3.68799949;stroke-linecap:butt;stroke-miterlimit:4;stroke-dasharray:none;stroke-opacity:1"
     id="rect938-08"
     width="30.96776"
     height="29.312"
     x="44.447998"
     y="261.327" />
  <rect
     style="opacity:1;fill:none;fill-opacity:1;stroke:#000000;stroke-width:3.68799949;stroke-linecap:butt;stroke-miterlimit:4;stroke-dasharray:none;stroke-opacity:1"
     id="rect938-5"
     width="30.96776"
     height="29.312"
     x="44.447998"
     y="222.886" />
  <rect
     style="opacity:1;fill:none;fill-opacity:1;stroke:#000000;stroke-width:3.68799949;stroke-linecap:butt;stroke-miterlimit:4;stroke-dasharray:none;stroke-opacity:1"
     id="rect938-38"
     width="30.96776"
     height="29.312"
     x="44.448322"
     y="182.446" />
  <text
     xml:space="preserve"
     style="font-style:normal;font-variant:normal;font-weight:normal;font-stretch:normal;font-size:34.10910416px;line-height:1.25;font-family:'special elite';-inkscape-font-specification:'special elite';letter-spacing:0px;word-spacing:0px;fill:#000000;fill-opacity:1;stroke:none;stroke-width:0.85272765"
     x="111.23267"
     y="174.33221"
     id="text999"
     transform="scale(0.85272764,1.1727074)"><tspan
       sodipodi:role="line"
       id="tspan997"
       x="111.23267"
       y="174.33221"
       style="font-size:22.73940277px;stroke-width:0.85272765">Steel Crate Games</tspan></text>
  <text
     xml:space="preserve"
     style="font-style:normal;font-variant:normal;font-weight:normal;font-stretch:normal;font-size:40px;line-height:1.25;font-family:'special elite';-inkscape-font-specification:'special elite';letter-spacing:0px;word-spacing:0px;fill:#000000;fill-opacity:1;stroke:none"
     x="106.69492"
     y="246.25424"
     id="text1003"><tspan
       sodipodi:role="line"
       x="106.69492"
       y="246.25424"
       style="font-size:26.66666603px"
       id="tspan1005">Exploding</tspan></text>
  <text
     xml:space="preserve"
     style="font-style:normal;font-variant:normal;font-weight:normal;font-stretch:normal;font-size:26.66666603px;line-height:1.25;font-family:'special elite';-inkscape-font-specification:'special elite';letter-spacing:0px;word-spacing:0px;fill:#000000;fill-opacity:1;stroke:none"
     x="138.40678"
     y="285.11865"
     id="text1011"><tspan
       sodipodi:role="line"
       id="tspan1009"
       x="138.40678"
       y="285.11865">KTaNE</tspan></text>
  <text
     xml:space="preserve"
     style="font-style:normal;font-variant:normal;font-weight:normal;font-stretch:normal;font-size:26.66666603px;line-height:1.25;font-family:'special elite';-inkscape-font-specification:'special elite';letter-spacing:0px;word-spacing:0px;fill:#000000;fill-opacity:1;stroke:none"
     x="134.18645"
     y="323.98306"
     id="text1015"><tspan
       sodipodi:role="line"
       id="tspan1013"
       x="134.18645"
       y="323.98306">888 mg</tspan></text>
</svg>
